<svg id="Capa_1" enable-background="new 0 0 512 512" height="512" viewBox="0 0 512 512" width="512" xmlns="http://www.w3.org/2000/svg"><g><g><path d="m504.5 301.381c4.143 0 7.5-3.357 7.5-7.5v-32.32c0-2.174-.943-4.241-2.586-5.666-1.643-1.424-3.82-2.065-5.975-1.759l-70.71 10.101c-3.695.528-6.439 3.692-6.439 7.425v22.802h-25.41v-53.112c0-15.273-12.426-27.699-27.7-27.699h-22.522c30.081-18.24 50.224-51.297 50.224-88.972 0-57.33-46.641-103.971-103.971-103.971-43.607 0-81.024 26.989-96.441 65.137-6.701-16.685-17.729-31.52-32.382-43.015-3.258-2.559-7.974-1.989-10.529 1.271-2.557 3.259-1.988 7.973 1.271 10.529 21.677 17.007 34.109 42.538 34.109 70.049 0 49.059-39.912 88.971-88.971 88.971-49.058 0-88.97-39.912-88.97-88.971 0-49.058 39.912-88.97 88.97-88.97 8.979 0 17.828 1.33 26.302 3.954 3.963 1.229 8.158-.989 9.383-4.945 1.226-3.957-.988-8.158-4.945-9.383-9.912-3.069-20.254-4.626-30.739-4.626-57.328 0-103.969 46.641-103.969 103.97 0 37.674 20.142 70.731 50.222 88.971h-22.522c-15.274 0-27.7 12.426-27.7 27.699v133.091c0 4.143 3.357 7.5 7.5 7.5s7.5-3.357 7.5-7.5v-133.091c0-7.002 5.697-12.699 12.7-12.699h345.48c7.003 0 12.7 5.697 12.7 12.699v222.24c0 7.003-5.697 12.7-12.7 12.7h-345.48c-7.003 0-12.7-5.697-12.7-12.7v-54.05c0-4.143-3.357-7.5-7.5-7.5s-7.5 3.357-7.5 7.5v54.05c0 15.274 12.426 27.7 27.7 27.7h345.48c15.274 0 27.7-12.426 27.7-27.7v-53.111h25.41v22.802c0 3.732 2.744 6.896 6.438 7.425l70.71 10.109c.354.051.709.075 1.062.075 1.793 0 3.541-.644 4.914-1.834 1.643-1.425 2.586-3.491 2.586-5.666v-114.41c0-4.143-3.357-7.5-7.5-7.5s-7.5 3.357-7.5 7.5v105.761l-55.71-7.965v-148.611l55.71-7.958v23.673c0 4.142 3.357 7.5 7.5 7.5zm-207.589-265.672c49.059 0 88.971 39.912 88.971 88.971s-39.912 88.971-88.971 88.971c-49.058 0-88.97-39.912-88.97-88.971s39.913-88.971 88.97-88.971zm-96.47 127.732c8.462 20.986 23.578 38.601 42.724 50.21h-85.448c19.147-11.609 34.262-29.224 42.724-50.21zm200.439 232.038v-86.017h25.41v86.017z"/><path d="m296.911 162.484c20.846 0 37.806-16.959 37.806-37.805s-16.96-37.805-37.806-37.805-37.805 16.959-37.805 37.805 16.959 37.805 37.805 37.805zm0-60.609c12.575 0 22.806 10.23 22.806 22.805s-10.23 22.805-22.806 22.805c-12.574 0-22.805-10.23-22.805-22.805s10.231-22.805 22.805-22.805z"/><path d="m103.971 86.875c-20.846 0-37.805 16.959-37.805 37.805s16.959 37.805 37.805 37.805 37.805-16.959 37.805-37.805-16.96-37.805-37.805-37.805zm0 60.609c-12.574 0-22.805-10.23-22.805-22.805s10.23-22.805 22.805-22.805 22.805 10.23 22.805 22.805-10.231 22.805-22.805 22.805z"/><path d="m32.325 451.468c0 4.143 3.357 7.5 7.5 7.5h321.231c4.143 0 7.5-3.357 7.5-7.5v-32.325c0-4.143-3.357-7.5-7.5-7.5h-321.231c-4.143 0-7.5 3.357-7.5 7.5zm15-24.825h306.231v17.325h-306.231z"/><path d="m361.057 318.707c-4.143 0-7.5 3.357-7.5 7.5v56.569c0 4.143 3.357 7.5 7.5 7.5s7.5-3.357 7.5-7.5v-56.569c0-4.143-3.358-7.5-7.5-7.5z"/><path d="m321.231 326.207v56.569c0 4.143 3.357 7.5 7.5 7.5s7.5-3.357 7.5-7.5v-56.569c0-4.143-3.357-7.5-7.5-7.5s-7.5 3.357-7.5 7.5z"/><path d="m288.906 326.207v56.569c0 4.143 3.357 7.5 7.5 7.5s7.5-3.357 7.5-7.5v-56.569c0-4.143-3.357-7.5-7.5-7.5s-7.5 3.357-7.5 7.5z"/><path d="m32.325 326.207v56.569c0 4.143 3.357 7.5 7.5 7.5h121.22c4.143 0 7.5-3.357 7.5-7.5v-56.569c0-4.143-3.357-7.5-7.5-7.5h-121.22c-4.142 0-7.5 3.357-7.5 7.5zm15 7.5h106.22v41.569h-106.22z"/><path d="m368.557 253.476c0-4.143-3.357-7.5-7.5-7.5h-161.626c-4.143 0-7.5 3.357-7.5 7.5v40.406c0 4.143 3.357 7.5 7.5 7.5h161.626c4.143 0 7.5-3.357 7.5-7.5zm-15 32.906h-146.626v-25.406h146.626z"/><path d="m174.605 273.679c0-15.275-12.428-27.703-27.703-27.703s-27.703 12.428-27.703 27.703 12.428 27.703 27.703 27.703 27.703-12.428 27.703-27.703zm-40.406 0c0-7.005 5.698-12.703 12.703-12.703s12.703 5.698 12.703 12.703-5.698 12.703-12.703 12.703-12.703-5.698-12.703-12.703z"/></g></g></svg>