<svg id="dentistry" enable-background="new 0 0 300 300" height="512" viewBox="0 0 300 300" width="512" xmlns="http://www.w3.org/2000/svg"><g><path d="m40 100.651c-2.362 0-4.276 1.915-4.276 4.277s1.915 4.276 4.276 4.276 4.277-1.915 4.277-4.276-1.915-4.277-4.277-4.277z"/><path d="m82.995 48c2.211 0 4-1.791 4-4v-8c0-2.209-1.789-4-4-4s-4 1.791-4 4v8c0 2.209 1.789 4 4 4z"/><path d="m82.995 56c-2.211 0-4 1.791-4 4v8c0 2.209 1.789 4 4 4s4-1.791 4-4v-8c0-2.209-1.79-4-4-4z"/><path d="m66.995 56h8c2.211 0 4-1.791 4-4s-1.789-4-4-4h-8c-2.211 0-4 1.791-4 4s1.789 4 4 4z"/><path d="m90.995 56h8c2.211 0 4-1.791 4-4s-1.789-4-4-4h-8c-2.211 0-4 1.791-4 4s1.789 4 4 4z"/><path d="m236.995 224c-7.719 0-14 6.281-14 14s6.281 14 14 14 14-6.281 14-14-6.282-14-14-14zm0 20c-3.309 0-6-2.691-6-6s2.691-6 6-6 6 2.691 6 6-2.692 6-6 6z"/><path d="m260 184.651c-2.362 0-4.276 1.915-4.276 4.277s1.915 4.276 4.276 4.276 4.277-1.915 4.277-4.276-1.915-4.277-4.277-4.277z"/><path d="m234.636 132.469c16.632-6.935 28.358-23.353 28.358-42.469 0-25.365-20.637-46-46-46-22.105 0-40.608 15.678-45.001 36.496-7.99 1.417-15.684 4.706-22.265 9.556-.402.303-.984.305-1.395.002-11.004-8.113-24.602-11.652-38.246-9.984-24.375 2.982-43.883 22.881-46.395 47.311-1.34 13.051 2.078 26.059 9.629 36.631 7.285 10.195 12.008 19.654 14.438 28.922 1.18 4.492 1.785 8.162 1.805 10.906.156 23.031 2.82 41.064 7.914 53.596 2.609 6.418 8.91 10.564 16.051 10.564 9.629 0 17.465-7.834 17.465-17.465v-44.535c0-9.926 8.074-18 18-18s18 8.074 18 18v44.49c0 9.654 7.855 17.51 17.512 17.51 7.156 0 13.473-4.156 16.09-10.592 5.086-12.527 7.746-30.551 7.902-53.568.02-2.744.625-6.414 1.809-10.908 2.426-9.266 7.148-18.725 14.434-28.92 6.611-9.253 10.011-20.15 9.895-31.543zm-17.641-80.469c20.953 0 38 17.047 38 38s-17.047 38-38 38-38-17.047-38-38 17.046-38 38-38zm-14.426 138.902c-1.352 5.137-2.047 9.471-2.07 12.883-.145 21.691-2.676 39.191-7.316 50.609-1.363 3.354-4.848 5.605-8.676 5.605-5.246 0-9.512-4.266-9.512-9.51v-44.489c0-14.336-11.664-26-26-26s-26 11.664-26 26v44.535c0 5.219-4.246 9.465-9.465 9.465-3.809 0-7.281-2.24-8.637-5.578-4.648-11.424-7.184-28.934-7.328-50.637-.023-3.412-.719-7.746-2.066-12.881-2.68-10.225-7.805-20.543-15.668-31.543-6.414-8.984-9.32-20.051-8.176-31.162 2.129-20.752 18.703-37.654 39.402-40.188 11.637-1.428 23.184 1.588 32.527 8.482 3.211 2.363 7.684 2.361 10.895-.002 4.945-3.644 10.636-6.188 16.571-7.577-.009.364-.055.719-.055 1.085 0 25.365 20.637 46 46 46 3.292 0 6.5-.363 9.598-1.024-.367 8.803-3.214 17.183-8.36 24.383-7.863 11.003-12.988 21.322-15.664 31.544z"/><path d="m172.995 125.387c-2.547 0-4.612 2.065-4.612 4.613s2.065 4.612 4.612 4.612 4.612-2.065 4.612-4.612-2.065-4.613-4.612-4.613z"/><path d="m116.995 125.387c-2.547 0-4.612 2.065-4.612 4.613s2.065 4.612 4.612 4.612 4.612-2.065 4.612-4.612-2.065-4.613-4.612-4.613z"/><path d="m165.37 151.816c-2.129-.645-4.348.57-4.98 2.684-.461 1.533-1.488 2.797-2.902 3.557-1.41.762-3.031.928-4.57.463-2.121-.631-4.348.566-4.98 2.682s.566 4.346 2.684 4.982c1.328.398 2.688.598 4.043.598 2.285 0 4.547-.566 6.617-1.68 3.293-1.773 5.699-4.723 6.773-8.305.631-2.115-.568-4.346-2.685-4.981z"/><path d="m194.995 100h12v12c0 2.209 1.789 4 4 4h12c2.211 0 4-1.791 4-4v-12h12c2.211 0 4-1.791 4-4v-12c0-2.209-1.789-4-4-4h-12v-12c0-2.209-1.789-4-4-4h-12c-2.211 0-4 1.791-4 4v12h-12c-2.211 0-4 1.791-4 4v12c0 2.209 1.789 4 4 4zm4-12h12c2.211 0 4-1.791 4-4v-12h4v12c0 2.209 1.789 4 4 4h12v4h-12c-2.211 0-4 1.791-4 4v12h-4v-12c0-2.209-1.789-4-4-4h-12z"/></g></svg>