<?xml version="1.0" encoding="iso-8859-1"?>
<!-- Generator: Adobe Illustrator 19.0.0, SVG Export Plug-In . SVG Version: 6.00 Build 0)  -->
<svg version="1.1" id="Capa_1" xmlns="http://www.w3.org/2000/svg" xmlns:xlink="http://www.w3.org/1999/xlink" x="0px" y="0px"
	 viewBox="0 0 511.999 511.999" style="enable-background:new 0 0 511.999 511.999;" xml:space="preserve">
<g>
	<g>
		<path d="M310.324,215.962c-4.142,0-7.5,3.358-7.5,7.5v2c0,4.142,3.358,7.5,7.5,7.5c4.142,0,7.5-3.358,7.5-7.5v-2
			C317.824,219.32,314.466,215.962,310.324,215.962z"/>
	</g>
</g>
<g>
	<g>
		<path d="M201.676,215.962c-4.142,0-7.5,3.358-7.5,7.5v2c0,4.142,3.358,7.5,7.5,7.5c4.142,0,7.5-3.358,7.5-7.5v-2
			C209.176,219.32,205.818,215.962,201.676,215.962z"/>
	</g>
</g>
<g>
	<g>
		<path d="M287.936,260.31c-3.406-2.358-8.078-1.509-10.436,1.896c-4.89,7.062-12.928,11.278-21.5,11.278
			c-8.573,0-16.61-4.216-21.501-11.278c-2.357-3.405-7.03-4.254-10.436-1.896c-3.405,2.358-4.254,7.03-1.896,10.435
			c7.691,11.108,20.339,17.739,33.833,17.739s26.142-6.631,33.832-17.739C292.19,267.34,291.341,262.668,287.936,260.31z"/>
	</g>
</g>
<g>
	<g>
		<path d="M419.14,196.97c12.401,0,22.49-10.085,22.49-22.48c0-6.008-2.339-11.656-6.587-15.904
			c-4.248-4.247-9.896-6.586-15.903-6.586H404.5v-2.64c0-27.865-8.429-54.614-24.375-77.354
			c-15.584-22.224-37.173-39.065-62.431-48.704c-3.871-1.476-8.204,0.463-9.681,4.333s0.463,8.204,4.333,9.681
			c22.448,8.566,41.639,23.539,55.497,43.301c14.168,20.204,21.657,43.974,21.657,68.741V152h-96.4v-27.724
			c3.974-6.651,6.07-14.228,6.07-22.066c0-7.824-2.096-15.399-6.07-22.06V20.59C293.1,9.237,283.863,0,272.51,0h-33.02
			c-9.934,0-18.247,7.071-20.171,16.444C155.148,27.499,107.5,83.574,107.5,149.36V152h-14.64c-12.401,0-22.49,10.089-22.49,22.49
			c0,6.001,2.339,11.646,6.587,15.894c4.248,4.247,9.896,6.586,15.903,6.586h11.64v26.586c-9.019,6.693-14.47,17.332-14.47,28.733
			c0,19.746,16.064,35.81,35.81,35.81h25.225c12.433,22.7,31.823,40.728,55.335,51.438v16.402h-3.33
			c-0.22,0-0.437,0.015-0.657,0.017c-1.035,0.008-2.066,0.033-3.095,0.079c-0.476,0.021-0.949,0.053-1.423,0.083
			c-0.839,0.052-1.676,0.115-2.51,0.191c-0.44,0.041-0.88,0.081-1.318,0.128c-1.05,0.113-2.096,0.247-3.139,0.4
			c-0.187,0.028-0.377,0.048-0.564,0.077c-1.301,0.2-2.594,0.434-3.88,0.695c-0.119,0.024-0.236,0.053-0.355,0.077
			c-1.169,0.243-2.331,0.514-3.487,0.807c-0.179,0.046-0.358,0.092-0.537,0.139c-1.196,0.312-2.385,0.649-3.565,1.015
			c-0.04,0.012-0.081,0.024-0.12,0.036c-3.818,1.19-7.545,2.662-11.162,4.404c-0.053,0.026-0.107,0.052-0.16,0.077
			c-4.336,2.099-8.517,4.576-12.49,7.447c-0.138,0.1-0.263,0.214-0.394,0.322c-20.596,15.091-34.004,39.442-34.004,66.876v65.69
			c0,4.142,3.358,7.5,7.5,7.5h0.001H206.5h99h78.789h0.001c4.142,0,7.5-3.358,7.5-7.5v-65.69c0-27.434-13.408-51.785-34.004-66.876
			c-0.13-0.108-0.255-0.222-0.394-0.322c-3.973-2.87-8.154-5.347-12.49-7.447c-0.053-0.026-0.107-0.052-0.16-0.077
			c-3.617-1.742-7.344-3.214-11.162-4.404c-0.04-0.012-0.08-0.024-0.12-0.036c-1.18-0.366-2.369-0.703-3.565-1.015
			c-0.179-0.047-0.358-0.094-0.537-0.139c-1.156-0.293-2.318-0.564-3.487-0.807c-0.119-0.025-0.236-0.053-0.355-0.077
			c-1.286-0.261-2.579-0.495-3.88-0.695c-0.187-0.029-0.376-0.05-0.564-0.077c-1.042-0.153-2.088-0.287-3.139-0.4
			c-0.438-0.048-0.878-0.088-1.318-0.128c-0.834-0.077-1.671-0.14-2.51-0.191c-0.474-0.029-0.947-0.062-1.423-0.083
			c-1.029-0.046-2.061-0.07-3.095-0.079c-0.22-0.002-0.437-0.017-0.657-0.017h-3.33v-16.402
			c23.514-10.713,42.903-28.74,55.335-51.438h25.226c19.746,0,35.81-16.064,35.81-35.81c0-11.409-5.458-22.053-14.47-28.736V196.97
			H419.14z M135.21,438.81c0-16.797,6.146-32.177,16.29-44.041V421v33.5V472h-16.29V438.81z M199,497h-63.789v-10H159
			c4.142,0,7.5-3.358,7.5-7.5V462H199V497z M199,447h-32.5v-18.5H199V447z M199,413.5h-32.5v-31.816
			c5.055-3.248,10.555-5.86,16.404-7.685c0.006-0.002,0.013-0.004,0.019-0.006c2.054-0.64,4.151-1.18,6.283-1.625
			c0.136-0.028,0.271-0.056,0.407-0.084c1.016-0.205,2.038-0.391,3.069-0.55c0.096-0.015,0.192-0.026,0.288-0.04
			c0.897-0.134,1.8-0.246,2.708-0.345c0.256-0.028,0.512-0.058,0.769-0.082c0.846-0.082,1.698-0.144,2.553-0.195V413.5z
			 M360.5,454.5V421v-26.231c10.144,11.864,16.29,27.244,16.29,44.041V472H360.5V454.5z M313,371.073
			c0.855,0.051,1.707,0.112,2.553,0.195c0.257,0.025,0.513,0.055,0.769,0.082c0.908,0.099,1.811,0.211,2.708,0.345
			c0.096,0.014,0.192,0.025,0.288,0.04c1.031,0.159,2.054,0.345,3.069,0.55c0.136,0.027,0.271,0.055,0.407,0.084
			c2.132,0.444,4.229,0.985,6.283,1.625c0.006,0.002,0.013,0.004,0.019,0.006c5.849,1.824,11.35,4.436,16.405,7.685V413.5H313
			V371.073z M313,428.5h32.5V447H313V428.5z M313,462h32.5v17.5c0,4.142,3.358,7.5,7.5,7.5h23.789v10H313V462z M279.388,86.512
			c3.128,4.644,4.782,10.072,4.782,15.698c0,5.642-1.654,11.071-4.783,15.699c-0.051,0.075-0.1,0.151-0.148,0.228
			c-5.271,7.671-13.938,12.243-23.239,12.243c-9.381,0-18.118-4.651-23.375-12.443c-0.004-0.007-0.009-0.013-0.013-0.019
			c-3.128-4.644-4.782-10.075-4.782-15.708c0-5.63,1.656-11.061,4.789-15.708C237.874,78.705,246.615,74.05,256,74.05
			c9.381,0,18.118,4.651,23.375,12.443C279.379,86.5,279.384,86.506,279.388,86.512z M278.1,139.285V152h-44.2v-12.715
			c6.586,3.927,14.19,6.095,22.1,6.095C263.91,145.38,271.514,143.213,278.1,139.285z M125.84,273.102V273.1
			c-11.475,0-20.81-9.336-20.81-20.81c0-7.516,4.074-14.465,10.659-18.15c3.069-1.733,6.58-2.65,10.151-2.65h10.553
			c0.005,0.807,0.02,1.584,0.04,2.348c0.005,0.195,0.014,0.39,0.02,0.585c0.013,0.408,0.024,0.82,0.042,1.221
			c0.012,0.381,0.025,0.761,0.046,1.104l0.02,0.339c0.008,0.145,0.017,0.29,0.025,0.436l0.012,0.213
			c0.023,0.538,0.057,1.066,0.101,1.604c0.018,0.272,0.044,0.539,0.065,0.808c0.018,0.224,0.035,0.448,0.054,0.671
			c0.015,0.168,0.025,0.338,0.041,0.506c0.043,0.526,0.087,1.035,0.15,1.633c0.031,0.276,0.064,0.552,0.087,0.828
			c0.006,0.068,0.013,0.136,0.02,0.204c0.097,0.863,0.208,1.717,0.326,2.571c0.024,0.177,0.043,0.355,0.067,0.532
			c0.14,1.08,0.304,2.171,0.48,3.199c0.001,0.002,0.001,0.004,0.001,0.006c0.001,0.002,0.001,0.004,0.001,0.006
			c0.05,0.306,0.111,0.606,0.163,0.911c0.32,1.845,0.671,3.669,1.06,5.4c0.002,0.008,0.004,0.016,0.006,0.023
			c0.001,0.002,0.001,0.004,0.001,0.006c0,0,0.001,0.001,0.001,0.002c0.009,0.042,0.021,0.084,0.03,0.126
			c0.276,1.245,0.575,2.486,0.892,3.722c0.109,0.426,0.229,0.848,0.343,1.273c0.233,0.871,0.472,1.739,0.726,2.605
			c0.141,0.482,0.289,0.961,0.436,1.441c0.25,0.814,0.507,1.626,0.775,2.435c0.159,0.482,0.32,0.963,0.485,1.443
			c0.286,0.829,0.584,1.654,0.888,2.477c0.115,0.31,0.218,0.625,0.335,0.934H125.84z M119.5,217.056V196.97h16.889v19.52h-10.55
			c-0.684,0-1.367,0.027-2.048,0.066c-0.184,0.011-0.368,0.024-0.552,0.037c-0.578,0.042-1.153,0.097-1.727,0.167
			c-0.113,0.014-0.226,0.023-0.338,0.038C120.614,216.872,120.056,216.956,119.5,217.056z M298,421v33.5V497h-84v-42.5V421v-47.039
			l13.29,13.716c3.766,3.877,8.18,6.902,13.116,8.99c4.96,2.099,10.206,3.164,15.593,3.164c10.753,0,21.219-4.432,28.716-12.161
			L298,373.961V421z M221.399,360.04v-14.832c0.065,0.02,0.131,0.036,0.196,0.055c1.224,0.369,2.453,0.714,3.687,1.042
			c0.277,0.073,0.554,0.143,0.831,0.215c1.105,0.285,2.214,0.555,3.327,0.808c0.186,0.042,0.37,0.088,0.556,0.129
			c1.25,0.277,2.505,0.531,3.764,0.768c0.292,0.055,0.584,0.107,0.877,0.159c1.155,0.208,2.314,0.402,3.476,0.576
			c0.144,0.022,0.287,0.047,0.431,0.068c1.273,0.186,2.551,0.346,3.833,0.491c0.304,0.034,0.609,0.066,0.914,0.098
			c1.222,0.129,2.446,0.243,3.674,0.335c0.084,0.006,0.168,0.015,0.252,0.021c1.295,0.093,2.594,0.16,3.895,0.212
			c0.316,0.013,0.632,0.024,0.948,0.034c1.31,0.042,2.622,0.071,3.939,0.071c1.317,0,2.629-0.029,3.939-0.071
			c0.316-0.01,0.632-0.021,0.948-0.034c1.301-0.052,2.6-0.118,3.895-0.212c0.084-0.006,0.168-0.015,0.253-0.021
			c1.228-0.091,2.453-0.206,3.674-0.335c0.304-0.032,0.608-0.064,0.911-0.098c1.283-0.145,2.562-0.306,3.837-0.492
			c0.14-0.02,0.279-0.045,0.419-0.066c1.169-0.175,2.333-0.37,3.495-0.579c0.287-0.052,0.574-0.103,0.86-0.156
			c1.263-0.238,2.523-0.492,3.776-0.771c0.178-0.039,0.355-0.083,0.533-0.124c1.124-0.255,2.244-0.528,3.36-0.816
			c0.269-0.069,0.538-0.137,0.806-0.208c1.24-0.329,2.475-0.677,3.705-1.046c0.063-0.019,0.126-0.034,0.189-0.053v14.832
			l-16.653,17.188c-4.686,4.831-11.228,7.602-17.947,7.602c-3.368,0-6.647-0.665-9.748-1.978c-3.081-1.304-5.841-3.197-8.196-5.622
			L221.399,360.04z M360.611,223.99v6.69c0,0.872-0.014,1.743-0.035,2.613c-0.008,0.314-0.02,0.629-0.031,0.942
			c-0.022,0.671-0.047,1.341-0.082,2.011l-0.027,0.473c-0.044,0.767-0.096,1.533-0.156,2.298c-0.013,0.164-0.025,0.329-0.039,0.492
			c-0.147,1.764-0.339,3.522-0.575,5.27c-0.01,0.072-0.017,0.145-0.028,0.217c-0.002,0.011-0.003,0.022-0.005,0.033
			c-0.37,2.697-0.848,5.371-1.426,8.015c-0.025,0.113-0.046,0.229-0.071,0.342c-0.591,2.684-1.302,5.342-2.107,7.973
			c-1.668,5.449-3.779,10.773-6.332,15.897c-11.408,22.909-30.732,40.809-54.419,50.405c-12.463,5.062-25.678,7.629-39.278,7.629
			c-1.7,0-3.394-0.04-5.081-0.12c-0.921-0.044-1.839-0.102-2.755-0.169c-10.001-0.736-19.751-2.884-29.1-6.421
			c-0.783-0.296-1.564-0.603-2.342-0.918h-0.001c-0.002-0.001-0.004-0.001-0.005-0.002c-23.681-9.594-43.005-27.493-54.413-50.402
			c-0.817-1.639-1.58-3.303-2.308-4.98c-2.645-6.096-4.708-12.429-6.136-18.913c-0.608-2.739-1.105-5.514-1.489-8.313
			c-0.002-0.018-0.005-0.035-0.007-0.053c-0.014-0.097-0.023-0.195-0.037-0.292c-0.23-1.721-0.419-3.452-0.564-5.189
			c-0.015-0.168-0.027-0.337-0.04-0.506c-0.06-0.766-0.112-1.533-0.156-2.301l-0.026-0.445c-0.036-0.68-0.06-1.361-0.083-2.042
			c-0.011-0.307-0.023-0.613-0.031-0.927c-0.021-0.872-0.035-1.744-0.035-2.617v-6.69v-27.02h209.22V223.99z M386.16,273.1h-18.293
			c0.117-0.309,0.22-0.623,0.335-0.933c0.303-0.819,0.6-1.64,0.884-2.465c0.169-0.489,0.332-0.979,0.495-1.47
			c0.262-0.793,0.515-1.589,0.76-2.387c0.152-0.494,0.304-0.988,0.449-1.484c0.247-0.845,0.481-1.694,0.709-2.544
			c0.118-0.439,0.242-0.877,0.355-1.318c0.32-1.251,0.623-2.506,0.902-3.766c0.007-0.03,0.015-0.061,0.022-0.091
			c0.001-0.003,0.001-0.007,0.002-0.01c0-0.002,0.001-0.004,0.001-0.005c0.008-0.037,0.015-0.075,0.023-0.112
			c0.451-2.021,0.857-4.112,1.197-6.173c0-0.002,0-0.004,0.001-0.006c0.003-0.016,0.006-0.031,0.008-0.047
			c0.002-0.012,0.002-0.024,0.004-0.036c0.178-1.039,0.339-2.103,0.477-3.168c0-0.001,0-0.003,0.001-0.004
			c0.021-0.151,0.037-0.303,0.057-0.455c0.121-0.876,0.234-1.752,0.334-2.637c0.007-0.068,0.014-0.136,0.02-0.204
			c0.023-0.276,0.056-0.552,0.097-0.912c0.054-0.517,0.098-1.023,0.141-1.549c0.016-0.171,0.026-0.344,0.041-0.515
			c0.018-0.215,0.035-0.43,0.052-0.645c0.021-0.276,0.049-0.55,0.067-0.829c0.044-0.537,0.078-1.064,0.101-1.602l0.012-0.201
			c0.009-0.157,0.019-0.313,0.027-0.47l0.016-0.276c0.025-0.396,0.039-0.792,0.047-1.091c0.019-0.426,0.031-0.864,0.045-1.298
			c0.006-0.183,0.014-0.366,0.019-0.55c0.021-0.768,0.035-1.549,0.04-2.36h10.553c0.446,0,0.892,0.014,1.336,0.043
			c3.107,0.199,6.133,1.092,8.841,2.621c6.559,3.671,10.633,10.62,10.633,18.136C406.97,263.765,397.635,273.1,386.16,273.1z
			 M375.611,216.491v-19.52h16.89v20.085H392.5c-0.557-0.1-1.116-0.185-1.678-0.258c-0.107-0.014-0.215-0.023-0.322-0.036
			c-0.578-0.07-1.158-0.126-1.74-0.168c-0.184-0.013-0.367-0.026-0.551-0.037c-0.681-0.039-1.364-0.066-2.048-0.066H375.611z
			 M400,181.97h-31.89H143.89H112h-19.14c-2.001,0-3.882-0.779-5.297-2.193c-1.414-1.414-2.193-3.292-2.193-5.287
			c0-4.13,3.36-7.49,7.49-7.49h62.09c4.142,0,7.5-3.358,7.5-7.5c0-4.142-3.358-7.5-7.5-7.5H122.5v-2.64
			c0-57.451,40.879-106.568,96.4-117.584V47.34c0,4.142,3.358,7.5,7.5,7.5c4.142,0,7.5-3.358,7.5-7.5V20.59
			c0-3.082,2.508-5.59,5.59-5.59h33.02c3.082,0,5.59,2.508,5.59,5.59v44.555c-6.586-3.927-14.19-6.095-22.1-6.095
			c-14.381,0-27.771,7.128-35.818,19.067c-4.809,7.132-7.352,15.463-7.352,24.093c0,7.829,2.096,15.408,6.07,22.07V152h-33.96
			c-4.142,0-7.5,3.358-7.5,7.5c0,4.142,3.358,7.5,7.5,7.5h41.46h59.2h133.54c2.001,0,3.882,0.779,5.297,2.193
			c1.414,1.414,2.193,3.295,2.193,5.297c0,4.124-3.36,7.48-7.49,7.48H400z"/>
	</g>
</g>
<g>
</g>
<g>
</g>
<g>
</g>
<g>
</g>
<g>
</g>
<g>
</g>
<g>
</g>
<g>
</g>
<g>
</g>
<g>
</g>
<g>
</g>
<g>
</g>
<g>
</g>
<g>
</g>
<g>
</g>
</svg>
