<?xml version="1.0" encoding="iso-8859-1"?>
<!-- Generator: Adobe Illustrator 19.0.0, SVG Export Plug-In . SVG Version: 6.00 Build 0)  -->
<svg version="1.1" id="Capa_1" xmlns="http://www.w3.org/2000/svg" xmlns:xlink="http://www.w3.org/1999/xlink" x="0px" y="0px"
	 viewBox="0 0 479.726 479.726" style="enable-background:new 0 0 479.726 479.726;" xml:space="preserve">
<g>
	<g>
		<path d="M463.699,470.126l-8-40c-0.76-3.725-4.038-6.401-7.84-6.4h-16v-56c0-13.255-10.745-24-24-24h-216
			c-13.255,0-24,10.745-24,24v56h-16c-3.802-0.001-7.08,2.675-7.84,6.4l-8,40c-0.884,4.329,1.909,8.555,6.238,9.438
			c0.527,0.108,1.064,0.162,1.602,0.162h312c4.418,0.001,8.001-3.58,8.002-7.998C463.861,471.189,463.807,470.653,463.699,470.126z
			 M183.859,367.726c0-4.418,3.582-8,8-8h216c4.418,0,8,3.582,8,8v56h-232V367.726z M153.619,463.726l4.8-24h282.888l4.8,24H153.619
			z"/>
	</g>
</g>
<g>
	<g>
		<path d="M407.556,159.494c-7.285-6.934-18.057-8.734-27.2-4.544l-69-69l-51.92-51.952c4.364-9.131,2.516-20.02-4.616-27.2
			c-9.496-9.064-24.44-9.064-33.936,0l-90.528,90.464c-9.416,9.266-9.537,24.411-0.271,33.827
			c7.208,7.325,18.289,9.227,27.527,4.725l23.672,23.672l-2.208,2.208c-7.809,7.675-10.486,19.168-6.872,29.504L50.132,313.27
			c-9.142-4.383-20.053-2.534-27.24,4.616c-9.369,9.372-9.369,24.564,0,33.936l33.936,33.944c9.332,9.37,24.492,9.401,33.862,0.069
			c7.209-7.18,9.094-18.132,4.698-27.309l122.072-122.08c10.336,3.602,21.823,0.927,29.504-6.872l2.2-2.2l29.328,29.328
			c-5.662,11.951-0.564,26.228,11.386,31.89c9.137,4.329,20.009,2.452,27.166-4.69l90.512-90.472
			C416.925,184.058,416.925,168.866,407.556,159.494z M153.003,119.894c-3.122,3.126-8.188,3.129-11.314,0.006
			c-0.002-0.002-0.004-0.004-0.006-0.006c-3.126-3.122-3.129-8.188-0.006-11.314c0.002-0.002,0.004-0.004,0.006-0.006l33.944-33.936
			l56.576-56.568c3.123-3.118,8.181-3.118,11.304,0c3.123,3.124,3.123,8.188,0,11.312L153.003,119.894z M79.455,374.458
			c-3.126,3.124-8.192,3.122-11.316-0.004l-33.936-33.928c-3.022-3.223-2.859-8.286,0.364-11.308
			c3.079-2.887,7.871-2.886,10.948,0.004l33.944,33.92C82.583,366.268,82.581,371.334,79.455,374.458z M85.115,346.174
			l-22.632-22.632l118.8-118.8l22.624,22.632L85.115,346.174z M235.651,218.262c-5.031,5.035-13.192,5.037-18.226,0.006
			c-0.002-0.002-0.004-0.004-0.006-0.006l-27.032-27.032c-5.023-5.036-5.023-13.188,0-18.224l2.208-2.2l45.256,45.256
			L235.651,218.262z M288.763,244.35l-118.792-118.8l79.192-79.2l118.8,118.8L288.763,244.35z M396.243,182.118l-90.512,90.504
			c-3.02,3.225-8.083,3.391-11.308,0.371c-3.225-3.02-3.391-8.083-0.371-11.308c0.116-0.124,0.235-0.244,0.359-0.36l90.528-90.52
			c1.489-1.512,3.526-2.358,5.648-2.344c4.418,0.001,7.999,3.583,7.998,8.002C398.585,178.584,397.743,180.618,396.243,182.118z"/>
	</g>
</g>
<g>
	<g>
		<path d="M222.883,117.046l13.904-13.888L225.46,91.846l-13.888,13.888c-9.974,9.993-9.974,26.175,0,36.168l7.2,7.2l11.312-11.312
			l-7.2-7.2C219.156,126.844,219.156,120.791,222.883,117.046z"/>
	</g>
</g>
<g>
	<g>
		<path d="M219.763,375.726c-10.987,0.013-19.891,8.917-19.904,19.904v12.096h16V395.63c0.004-2.154,1.75-3.9,3.904-3.904h28.096
			v-16H219.763z"/>
	</g>
</g>
<g>
	<g>
		<rect x="239.859" y="71.723" transform="matrix(0.7071 -0.7071 0.7071 0.7071 16.2237 198.6138)" width="16" height="16"/>
	</g>
</g>
<g>
</g>
<g>
</g>
<g>
</g>
<g>
</g>
<g>
</g>
<g>
</g>
<g>
</g>
<g>
</g>
<g>
</g>
<g>
</g>
<g>
</g>
<g>
</g>
<g>
</g>
<g>
</g>
<g>
</g>
</svg>
