<?xml version="1.0" encoding="iso-8859-1"?>
<!-- Generator: Adobe Illustrator 19.0.0, SVG Export Plug-In . SVG Version: 6.00 Build 0)  -->
<svg version="1.1" id="Capa_1" xmlns="http://www.w3.org/2000/svg" xmlns:xlink="http://www.w3.org/1999/xlink" x="0px" y="0px"
	 viewBox="0 0 409.6 409.6" style="enable-background:new 0 0 409.6 409.6;" xml:space="preserve">
<g>
	<g>
		<path d="M361.813,0H47.787c-3.768,0-6.827,3.058-6.827,6.827v232.107c0,3.768,3.058,6.827,6.827,6.827h314.027
			c3.768,0,6.827-3.058,6.827-6.827V6.827C368.64,3.058,365.582,0,361.813,0z M354.987,232.107H54.613V13.653h300.373V232.107z"/>
	</g>
</g>
<g>
	<g>
		<path d="M341.333,20.48H68.267c-3.768,0-6.827,3.058-6.827,6.827v143.36c0,3.768,3.058,6.827,6.827,6.827h273.067
			c3.768,0,6.827-3.058,6.827-6.827V27.307C348.16,23.538,345.102,20.48,341.333,20.48z M334.507,163.84H75.093V34.133h259.413
			V163.84z"/>
	</g>
</g>
<g>
	<g>
		<path d="M81.92,184.32c-11.295,0-20.48,9.185-20.48,20.48c0,11.295,9.185,20.48,20.48,20.48c11.295,0,20.48-9.185,20.48-20.48
			C102.4,193.505,93.215,184.32,81.92,184.32z M81.92,211.627c-3.765,0-6.827-3.062-6.827-6.827s3.062-6.827,6.827-6.827
			s6.827,3.062,6.827,6.827S85.685,211.627,81.92,211.627z"/>
	</g>
</g>
<g>
	<g>
		<path d="M122.88,184.32c-11.295,0-20.48,9.185-20.48,20.48c0,11.295,9.185,20.48,20.48,20.48c11.295,0,20.48-9.185,20.48-20.48
			C143.36,193.505,134.175,184.32,122.88,184.32z M122.88,211.627c-3.765,0-6.827-3.062-6.827-6.827s3.062-6.827,6.827-6.827
			s6.827,3.062,6.827,6.827S126.645,211.627,122.88,211.627z"/>
	</g>
</g>
<g>
	<g>
		<path d="M129.707,122.88H95.573c-3.768,0-6.827,3.058-6.827,6.827c0,3.768,3.058,6.827,6.827,6.827h34.133
			c3.768,0,6.827-3.058,6.827-6.827C136.533,125.938,133.475,122.88,129.707,122.88z"/>
	</g>
</g>
<g>
	<g>
		<path d="M129.707,95.573H95.573c-3.768,0-6.827,3.058-6.827,6.827c0,3.768,3.058,6.827,6.827,6.827h34.133
			c3.768,0,6.827-3.058,6.827-6.827C136.533,98.632,133.475,95.573,129.707,95.573z"/>
	</g>
</g>
<g>
	<g>
		<path d="M314.044,75.482H198.499c-2.553,0-4.888,1.423-6.062,3.69l-16.507,31.925l-31.423-53.135
			c-1.232-2.075-3.465-3.348-5.878-3.348H88.747c-3.768,0-6.827,3.058-6.827,6.827c0,3.768,3.058,6.827,6.827,6.827h45.991
			l35.714,60.399c1.232,2.079,3.468,3.348,5.878,3.348c0.065,0,0.13,0,0.191-0.01c2.485-0.068,4.731-1.481,5.871-3.686
			l20.265-39.182h111.387c3.768,0,6.827-3.058,6.827-6.827C320.87,78.541,317.812,75.482,314.044,75.482z"/>
	</g>
</g>
<g>
	<g>
		<path d="M136.533,279.893H68.267c-3.768,0-6.827,3.058-6.827,6.827v75.093c0,3.768,3.058,6.827,6.827,6.827h68.267
			c3.768,0,6.827-3.058,6.827-6.827V286.72C143.36,282.952,140.302,279.893,136.533,279.893z M129.707,354.987H75.093v-61.44h54.613
			V354.987z"/>
	</g>
</g>
<g>
	<g>
		<path d="M327.66,293.547H202.097L137.94,280.04c-2.007-0.423-4.106,0.085-5.707,1.379c-1.601,1.297-2.526,3.243-2.526,5.301
			v27.307c0,3.226,2.26,6.018,5.42,6.68l64.853,13.653c0.464,0.096,0.932,0.147,1.406,0.147H327.66c11.305,0,20.5-9.185,20.5-20.48
			C348.16,302.732,338.964,293.547,327.66,293.547z M327.66,320.853H202.097l-58.737-12.367v-13.353l56.62,11.919
			c0.464,0.096,0.932,0.147,1.406,0.147H327.66c3.779,0,6.847,3.062,6.847,6.827S331.435,320.853,327.66,320.853z"/>
	</g>
</g>
<g>
	<g>
		<path d="M102.4,361.813c-3.768,0-6.827,3.058-6.827,6.827v34.133c0,3.768,3.058,6.827,6.827,6.827
			c3.768,0,6.827-3.058,6.827-6.827V368.64C109.227,364.872,106.168,361.813,102.4,361.813z"/>
	</g>
</g>
<g>
</g>
<g>
</g>
<g>
</g>
<g>
</g>
<g>
</g>
<g>
</g>
<g>
</g>
<g>
</g>
<g>
</g>
<g>
</g>
<g>
</g>
<g>
</g>
<g>
</g>
<g>
</g>
<g>
</g>
</svg>
